<svg width="21" height="12" viewBox="0 0 21 12" fill="none" xmlns="http://www.w3.org/2000/svg">
<path d="M10.7863 6.50764e-07C11.0305 6.29409e-07 11.2669 0.0458035 11.4953 0.137407C11.7249 0.22901 11.916 0.351147 12.0687 0.503818L20.4962 8.9313C20.8321 9.26718 21 9.69466 21 10.2137C21 10.7328 20.8321 11.1603 20.4962 11.4962C20.1603 11.8321 19.7328 12 19.2137 12C18.6947 12 18.2672 11.8321 17.9313 11.4962L10.7863 4.35115L3.64122 11.4962C3.30535 11.8321 2.87786 12 2.35878 12C1.8397 12 1.41222 11.8321 1.07634 11.4962C0.740461 11.1603 0.572519 10.7328 0.572519 10.2137C0.572519 9.69466 0.740461 9.26718 1.07634 8.9313L9.50382 0.503819C9.68702 0.320612 9.8855 0.191147 10.0992 0.115422C10.313 0.0384752 10.542 6.72119e-07 10.7863 6.50764e-07Z" fill="white"/>
</svg>
