<svg width="21" height="12" viewBox="0 0 21 12" fill="none" xmlns="http://www.w3.org/2000/svg">
<path d="M10.7862 12C10.542 12 10.3056 11.9542 10.0772 11.8626C9.84762 11.771 9.65648 11.6489 9.50381 11.4962L1.07633 3.0687C0.740448 2.73282 0.57251 2.30534 0.57251 1.78626C0.57251 1.26717 0.740448 0.839694 1.07633 0.503816C1.4122 0.167938 1.83969 0 2.35877 0C2.87785 0 3.30533 0.167938 3.64121 0.503816L10.7862 7.64886L17.9313 0.503816C18.2672 0.167938 18.6946 0 19.2137 0C19.7328 0 20.1603 0.167938 20.4962 0.503816C20.832 0.839694 21 1.26717 21 1.78626C21 2.30534 20.832 2.73282 20.4962 3.0687L12.0687 11.4962C11.8855 11.6794 11.687 11.8089 11.4733 11.8846C11.2595 11.9615 11.0305 12 10.7862 12Z" fill="white"/>
</svg>
